# xmcd
#
# Track frame offsets:
# 150
# 21805
# 52484
# 73500
# 97669
# 105884
# 125956
# 153643
# 181795
# 198123
# 216003
# 226955
# 250366
# 297970
# 320577
# 334125
#
# Disc length: 4818 seconds
#
# Revision: 0
# Processed by: cddbd v1.5.1PL2 Copyright (c) Steve Scherf et al.
# Submitted via: Audion 3.0.2 (http://www.panic.com/audion/)
#
DISCID=e612d010
DTITLE=John - John Buttler Trio
DYEAR=1900
DGENRE=
TTITLE0=JBT1
TTITLE1=JBT2
TTITLE2=JBT3
TTITLE3=JBT4
TTITLE4=JBT5
TTITLE5=JBT6
TTITLE6=JBT7
TTITLE7=JBT8
TTITLE8=JBT9
TTITLE9=JBT10
TTITLE10=JBT11
TTITLE11=JBT12
TTITLE12=JBT13
TTITLE13=JBT14
TTITLE14=JBT15
TTITLE15=JBT16
EXTD=
EXTT0=
EXTT1=
EXTT2=
EXTT3=
EXTT4=
EXTT5=
EXTT6=
EXTT7=
EXTT8=
EXTT9=
EXTT10=
EXTT11=
EXTT12=
EXTT13=
EXTT14=
EXTT15=
PLAYORDER=
